<svg id="Capa_1" data-name="Capa 1" xmlns="http://www.w3.org/2000/svg" viewBox="0 0 100 100"><defs><style>.cls-1{fill:#a33;}</style></defs><path d="M33.3,52.27a15.92,15.92,0,0,1-6.39-2,34.8,34.8,0,0,1-6.46-4.46,56.45,56.45,0,0,1-6.1-6.16,64,64,0,0,1-5.24-7.06,50.81,50.81,0,0,1-3.79-7.1,25.22,25.22,0,0,1-1.88-6.34q0-.39-.09-.93a7.59,7.59,0,0,1,0-1.07,1.61,1.61,0,0,1,.38-.91,1.43,1.43,0,0,1,1-.48,4.63,4.63,0,0,1,3.5.89,14.48,14.48,0,0,1,3,3.24,41.71,41.71,0,0,1,2.85,4.8c.92,1.81,1.87,3.65,2.83,5.5s1.95,3.69,3,5.49a31.72,31.72,0,0,0,3.27,4.74,13.37,13.37,0,0,0,3.77,3.14,7,7,0,0,0,4.42.77,1.41,1.41,0,0,0,.41-.14,1.73,1.73,0,0,1,.42-.13,18.93,18.93,0,0,0,3.19-5.66,64.41,64.41,0,0,0,2.27-7.33q1-3.9,1.81-8t1.9-7.72A42.18,42.18,0,0,1,43.71,9a9.53,9.53,0,0,1,3.34-4.07l3.77,2.94c.47.36.65,1.19.54,2.48a38.27,38.27,0,0,1-.83,4.91q-.66,3-1.73,6.59t-2.27,7.57l-2.4,7.83c-.79,2.59-1.5,5-2.1,7.31S41,48.88,40.61,50.65a14,14,0,0,0-.3,4.12,30,30,0,0,0,2.56,8.76q1.93,4.14,4.06,8.21t4,8.17a30.15,30.15,0,0,1,2.5,8.57l.21,1.58a6,6,0,0,1,0,1.85,2.4,2.4,0,0,1-.83,1.45,2.69,2.69,0,0,1-2.11.36A51.32,51.32,0,0,1,44.41,85a93,93,0,0,1-5.19-10.49,83.76,83.76,0,0,1-3.84-11.21A71.83,71.83,0,0,1,33.3,52.27Z"/><path d="M51.91,27.45c.05-.25.14-.67.29-1.28s.27-1.24.4-1.9S52.86,23,53,22.4s.23-1,.27-1.16a8.16,8.16,0,0,1,3.49-1.77,1.8,1.8,0,0,1,1.87.78,5,5,0,0,1,.6,2.66A31.6,31.6,0,0,1,59,26.82c-.17,1.44-.41,2.94-.71,4.51s-.56,3-.76,4.38a34.69,34.69,0,0,0-.39,3.62,3.43,3.43,0,0,0,.41,2.21L82.7,46.37a2.52,2.52,0,0,0,2.38-.54,5,5,0,0,0,1.25-2.34,20.45,20.45,0,0,0,.57-3.55c.1-1.35.23-2.73.37-4.15a38.87,38.87,0,0,1,.65-4.14,10.18,10.18,0,0,1,1.34-3.44,5.7,5.7,0,0,1,2.42-2.12,6.72,6.72,0,0,1,4.08-.21,7.1,7.1,0,0,1,.59,3.27,18.23,18.23,0,0,1-.55,3.44c-.29,1.16-.64,2.3-1,3.42a23.43,23.43,0,0,0-.9,3.29,71.25,71.25,0,0,0-1.11,8.77c-.18,3-.35,5.92-.48,8.89s-.3,5.92-.48,8.85a66.75,66.75,0,0,1-1.08,8.59,18.76,18.76,0,0,1-1.83,6.38c-.74,1.21-1.46,1.68-2.17,1.41s-1.39-1.16-2-2.71a23.57,23.57,0,0,1-1.45-6A51.4,51.4,0,0,1,83,65a58.92,58.92,0,0,1,1.39-10.2L57.84,49.75q-.45,5.16-.47,9.8c0,3.1-.07,5.81-.19,8.15a29.46,29.46,0,0,1-.68,5.5c-.33,1.34-1,1.94-1.9,1.81a5.07,5.07,0,0,1-3.33-2.12,12.38,12.38,0,0,1-1.78-4.42,29.87,29.87,0,0,1-.6-6.17c0-2.31.07-4.73.25-7.26s.43-5.1.76-7.73.64-5.15,1-7.58.57-4.7.78-6.82A52.39,52.39,0,0,0,51.91,27.45Z"/><path class="cls-1" d="M32.3,50.27a15.92,15.92,0,0,1-6.39-2,34.8,34.8,0,0,1-6.46-4.46,56.45,56.45,0,0,1-6.1-6.16,64,64,0,0,1-5.24-7.06,50.81,50.81,0,0,1-3.79-7.1,25.22,25.22,0,0,1-1.88-6.34q0-.39-.09-.93a7.59,7.59,0,0,1,0-1.07,1.61,1.61,0,0,1,.38-.91,1.43,1.43,0,0,1,1-.48,4.63,4.63,0,0,1,3.5.89,14.48,14.48,0,0,1,3,3.24,41.71,41.71,0,0,1,2.85,4.8c.92,1.81,1.87,3.65,2.83,5.5s2,3.69,3,5.49a31.72,31.72,0,0,0,3.27,4.74,13.37,13.37,0,0,0,3.77,3.14,7,7,0,0,0,4.42.77,1.41,1.41,0,0,0,.41-.14,1.73,1.73,0,0,1,.42-.13,18.93,18.93,0,0,0,3.19-5.66,64.41,64.41,0,0,0,2.27-7.33q1-3.9,1.81-8t1.9-7.72A42.18,42.18,0,0,1,42.71,7a9.53,9.53,0,0,1,3.34-4.07l3.77,2.94c.47.36.65,1.19.54,2.48a38.27,38.27,0,0,1-.83,4.91q-.66,3-1.73,6.59t-2.27,7.57l-2.4,7.83c-.79,2.59-1.5,5-2.1,7.31S40,46.88,39.61,48.65a14,14,0,0,0-.3,4.12,30,30,0,0,0,2.56,8.76q1.93,4.14,4.06,8.21t4,8.17a30.15,30.15,0,0,1,2.5,8.57l.21,1.58a6,6,0,0,1,0,1.85,2.4,2.4,0,0,1-.83,1.45,2.69,2.69,0,0,1-2.11.36A51.32,51.32,0,0,1,43.41,83a93,93,0,0,1-5.19-10.49,83.76,83.76,0,0,1-3.84-11.21A71.83,71.83,0,0,1,32.3,50.27Z"/><path class="cls-1" d="M50.91,25.45c.05-.25.14-.67.29-1.28s.27-1.24.4-1.9S51.86,21,52,20.4s.23-1,.27-1.16a8.16,8.16,0,0,1,3.49-1.77,1.8,1.8,0,0,1,1.87.78,5,5,0,0,1,.6,2.66A31.6,31.6,0,0,1,58,24.82c-.17,1.44-.41,2.94-.71,4.51s-.56,3-.76,4.38a34.69,34.69,0,0,0-.39,3.62,3.43,3.43,0,0,0,.41,2.21L81.7,44.37a2.52,2.52,0,0,0,2.38-.54,5,5,0,0,0,1.25-2.34,20.45,20.45,0,0,0,.57-3.55c.1-1.35.23-2.73.37-4.15a38.87,38.87,0,0,1,.65-4.14,10.18,10.18,0,0,1,1.34-3.44,5.7,5.7,0,0,1,2.42-2.12,6.72,6.72,0,0,1,4.08-.21,7.1,7.1,0,0,1,.59,3.27,18.23,18.23,0,0,1-.55,3.44c-.29,1.16-.64,2.3-1,3.42a23.43,23.43,0,0,0-.9,3.29,71.25,71.25,0,0,0-1.11,8.77c-.18,3-.35,5.92-.48,8.89s-.3,5.92-.48,8.85a66.75,66.75,0,0,1-1.08,8.59,18.76,18.76,0,0,1-1.83,6.38c-.74,1.21-1.46,1.68-2.17,1.41s-1.39-1.16-2-2.71a23.57,23.57,0,0,1-1.45-6A51.4,51.4,0,0,1,82,63a58.92,58.92,0,0,1,1.39-10.2L56.84,47.75q-.45,5.16-.47,9.8c0,3.1-.07,5.81-.19,8.15a29.46,29.46,0,0,1-.68,5.5c-.33,1.34-1,1.94-1.9,1.81a5.07,5.07,0,0,1-3.33-2.12,12.38,12.38,0,0,1-1.78-4.42,29.87,29.87,0,0,1-.6-6.17c0-2.31.07-4.73.25-7.26s.43-5.1.76-7.73.64-5.15,1-7.58.57-4.7.78-6.82A52.39,52.39,0,0,0,50.91,25.45Z"/></svg>